<mxfile host="app.diagrams.net" agent="Mozilla/5.0 (Windows NT 10.0; Win64; x64) AppleWebKit/537.36 (KHTML, like Gecko) Chrome/129.0.0.0 Safari/537.36 Edg/129.0.0.0" version="24.7.17">
  <diagram name="Page-1" id="2YBvvXClWsGukQMizWep">
    <mxGraphModel dx="1666" dy="747" grid="1" gridSize="10" guides="1" tooltips="1" connect="1" arrows="1" fold="1" page="1" pageScale="1" pageWidth="850" pageHeight="1100" math="0" shadow="0">
      <root>
        <mxCell id="0" />
        <mxCell id="1" parent="0" />
        <mxCell id="pZKHLVV2I5eYefhVrAUv-19" value="Student" style="shape=umlLifeline;perimeter=lifelinePerimeter;whiteSpace=wrap;html=1;container=1;dropTarget=0;collapsible=0;recursiveResize=0;outlineConnect=0;portConstraint=eastwest;newEdgeStyle={&quot;curved&quot;:0,&quot;rounded&quot;:0};participant=umlActor;" parent="1" vertex="1">
          <mxGeometry x="100" y="40" width="20" height="490" as="geometry" />
        </mxCell>
        <mxCell id="pZKHLVV2I5eYefhVrAUv-11" value="" style="html=1;points=[[0,0,0,0,5],[0,1,0,0,-5],[1,0,0,0,5],[1,1,0,0,-5]];perimeter=orthogonalPerimeter;outlineConnect=0;targetShapes=umlLifeline;portConstraint=eastwest;newEdgeStyle={&quot;curved&quot;:0,&quot;rounded&quot;:0};" parent="pZKHLVV2I5eYefhVrAUv-19" vertex="1">
          <mxGeometry x="5" y="70" width="10" height="60" as="geometry" />
        </mxCell>
        <mxCell id="qJ39X5yKAE_ROgauwuPq-9" value="" style="html=1;points=[[0,0,0,0,5],[0,1,0,0,-5],[1,0,0,0,5],[1,1,0,0,-5]];perimeter=orthogonalPerimeter;outlineConnect=0;targetShapes=umlLifeline;portConstraint=eastwest;newEdgeStyle={&quot;curved&quot;:0,&quot;rounded&quot;:0};" vertex="1" parent="pZKHLVV2I5eYefhVrAUv-19">
          <mxGeometry x="5" y="410" width="10" height="50" as="geometry" />
        </mxCell>
        <mxCell id="pZKHLVV2I5eYefhVrAUv-20" value="Lecturer" style="shape=umlLifeline;perimeter=lifelinePerimeter;whiteSpace=wrap;html=1;container=1;dropTarget=0;collapsible=0;recursiveResize=0;outlineConnect=0;portConstraint=eastwest;newEdgeStyle={&quot;curved&quot;:0,&quot;rounded&quot;:0};participant=umlActor;" parent="1" vertex="1">
          <mxGeometry x="170" y="40" width="20" height="630" as="geometry" />
        </mxCell>
        <mxCell id="pZKHLVV2I5eYefhVrAUv-25" value="" style="html=1;points=[[0,0,0,0,5],[0,1,0,0,-5],[1,0,0,0,5],[1,1,0,0,-5]];perimeter=orthogonalPerimeter;outlineConnect=0;targetShapes=umlLifeline;portConstraint=eastwest;newEdgeStyle={&quot;curved&quot;:0,&quot;rounded&quot;:0};" parent="pZKHLVV2I5eYefhVrAUv-20" vertex="1">
          <mxGeometry x="5" y="70" width="10" height="80" as="geometry" />
        </mxCell>
        <mxCell id="qJ39X5yKAE_ROgauwuPq-2" value="" style="html=1;points=[[0,0,0,0,5],[0,1,0,0,-5],[1,0,0,0,5],[1,1,0,0,-5]];perimeter=orthogonalPerimeter;outlineConnect=0;targetShapes=umlLifeline;portConstraint=eastwest;newEdgeStyle={&quot;curved&quot;:0,&quot;rounded&quot;:0};" vertex="1" parent="pZKHLVV2I5eYefhVrAUv-20">
          <mxGeometry x="5" y="410" width="10" height="50" as="geometry" />
        </mxCell>
        <mxCell id="qJ39X5yKAE_ROgauwuPq-13" value="" style="html=1;points=[[0,0,0,0,5],[0,1,0,0,-5],[1,0,0,0,5],[1,1,0,0,-5]];perimeter=orthogonalPerimeter;outlineConnect=0;targetShapes=umlLifeline;portConstraint=eastwest;newEdgeStyle={&quot;curved&quot;:0,&quot;rounded&quot;:0};" vertex="1" parent="pZKHLVV2I5eYefhVrAUv-20">
          <mxGeometry x="5" y="490" width="10" height="50" as="geometry" />
        </mxCell>
        <mxCell id="pZKHLVV2I5eYefhVrAUv-21" value="Admin" style="shape=umlLifeline;perimeter=lifelinePerimeter;whiteSpace=wrap;html=1;container=1;dropTarget=0;collapsible=0;recursiveResize=0;outlineConnect=0;portConstraint=eastwest;newEdgeStyle={&quot;curved&quot;:0,&quot;rounded&quot;:0};participant=umlActor;" parent="1" vertex="1">
          <mxGeometry x="30" y="40" width="20" height="800" as="geometry" />
        </mxCell>
        <mxCell id="qJ39X5yKAE_ROgauwuPq-30" value="" style="html=1;points=[[0,0,0,0,5],[0,1,0,0,-5],[1,0,0,0,5],[1,1,0,0,-5]];perimeter=orthogonalPerimeter;outlineConnect=0;targetShapes=umlLifeline;portConstraint=eastwest;newEdgeStyle={&quot;curved&quot;:0,&quot;rounded&quot;:0};" vertex="1" parent="pZKHLVV2I5eYefhVrAUv-21">
          <mxGeometry x="5" y="680" width="10" height="100" as="geometry" />
        </mxCell>
        <mxCell id="pZKHLVV2I5eYefhVrAUv-22" value=":Application" style="shape=umlLifeline;perimeter=lifelinePerimeter;whiteSpace=wrap;html=1;container=1;dropTarget=0;collapsible=0;recursiveResize=0;outlineConnect=0;portConstraint=eastwest;newEdgeStyle={&quot;curved&quot;:0,&quot;rounded&quot;:0};" parent="1" vertex="1">
          <mxGeometry x="450" y="40" width="100" height="800" as="geometry" />
        </mxCell>
        <mxCell id="pZKHLVV2I5eYefhVrAUv-14" value="" style="html=1;points=[[0,0,0,0,5],[0,1,0,0,-5],[1,0,0,0,5],[1,1,0,0,-5]];perimeter=orthogonalPerimeter;outlineConnect=0;targetShapes=umlLifeline;portConstraint=eastwest;newEdgeStyle={&quot;curved&quot;:0,&quot;rounded&quot;:0};" parent="pZKHLVV2I5eYefhVrAUv-22" vertex="1">
          <mxGeometry x="45" y="80" width="10" height="80" as="geometry" />
        </mxCell>
        <mxCell id="pZKHLVV2I5eYefhVrAUv-33" value="" style="html=1;points=[[0,0,0,0,5],[0,1,0,0,-5],[1,0,0,0,5],[1,1,0,0,-5]];perimeter=orthogonalPerimeter;outlineConnect=0;targetShapes=umlLifeline;portConstraint=eastwest;newEdgeStyle={&quot;curved&quot;:0,&quot;rounded&quot;:0};" parent="pZKHLVV2I5eYefhVrAUv-22" vertex="1">
          <mxGeometry x="45" y="250" width="10" height="50" as="geometry" />
        </mxCell>
        <mxCell id="pZKHLVV2I5eYefhVrAUv-46" value="" style="html=1;points=[[0,0,0,0,5],[0,1,0,0,-5],[1,0,0,0,5],[1,1,0,0,-5]];perimeter=orthogonalPerimeter;outlineConnect=0;targetShapes=umlLifeline;portConstraint=eastwest;newEdgeStyle={&quot;curved&quot;:0,&quot;rounded&quot;:0};" parent="pZKHLVV2I5eYefhVrAUv-22" vertex="1">
          <mxGeometry x="45" y="330" width="10" height="50" as="geometry" />
        </mxCell>
        <mxCell id="qJ39X5yKAE_ROgauwuPq-5" value="" style="html=1;points=[[0,0,0,0,5],[0,1,0,0,-5],[1,0,0,0,5],[1,1,0,0,-5]];perimeter=orthogonalPerimeter;outlineConnect=0;targetShapes=umlLifeline;portConstraint=eastwest;newEdgeStyle={&quot;curved&quot;:0,&quot;rounded&quot;:0};" vertex="1" parent="pZKHLVV2I5eYefhVrAUv-22">
          <mxGeometry x="45" y="410" width="10" height="50" as="geometry" />
        </mxCell>
        <mxCell id="qJ39X5yKAE_ROgauwuPq-32" value="" style="html=1;points=[[0,0,0,0,5],[0,1,0,0,-5],[1,0,0,0,5],[1,1,0,0,-5]];perimeter=orthogonalPerimeter;outlineConnect=0;targetShapes=umlLifeline;portConstraint=eastwest;newEdgeStyle={&quot;curved&quot;:0,&quot;rounded&quot;:0};" vertex="1" parent="pZKHLVV2I5eYefhVrAUv-22">
          <mxGeometry x="45" y="680" width="10" height="80" as="geometry" />
        </mxCell>
        <mxCell id="pZKHLVV2I5eYefhVrAUv-24" value=":Database" style="shape=umlLifeline;perimeter=lifelinePerimeter;whiteSpace=wrap;html=1;container=1;dropTarget=0;collapsible=0;recursiveResize=0;outlineConnect=0;portConstraint=eastwest;newEdgeStyle={&quot;curved&quot;:0,&quot;rounded&quot;:0};" parent="1" vertex="1">
          <mxGeometry x="660" y="40" width="100" height="800" as="geometry" />
        </mxCell>
        <mxCell id="pZKHLVV2I5eYefhVrAUv-23" value="" style="html=1;points=[[0,0,0,0,5],[0,1,0,0,-5],[1,0,0,0,5],[1,1,0,0,-5]];perimeter=orthogonalPerimeter;outlineConnect=0;targetShapes=umlLifeline;portConstraint=eastwest;newEdgeStyle={&quot;curved&quot;:0,&quot;rounded&quot;:0};" parent="pZKHLVV2I5eYefhVrAUv-24" vertex="1">
          <mxGeometry x="45" y="80" width="10" height="310" as="geometry" />
        </mxCell>
        <mxCell id="qJ39X5yKAE_ROgauwuPq-8" value="" style="html=1;points=[[0,0,0,0,5],[0,1,0,0,-5],[1,0,0,0,5],[1,1,0,0,-5]];perimeter=orthogonalPerimeter;outlineConnect=0;targetShapes=umlLifeline;portConstraint=eastwest;newEdgeStyle={&quot;curved&quot;:0,&quot;rounded&quot;:0};" vertex="1" parent="pZKHLVV2I5eYefhVrAUv-24">
          <mxGeometry x="45" y="410" width="10" height="240" as="geometry" />
        </mxCell>
        <mxCell id="qJ39X5yKAE_ROgauwuPq-29" value="" style="html=1;points=[[0,0,0,0,5],[0,1,0,0,-5],[1,0,0,0,5],[1,1,0,0,-5]];perimeter=orthogonalPerimeter;outlineConnect=0;targetShapes=umlLifeline;portConstraint=eastwest;newEdgeStyle={&quot;curved&quot;:0,&quot;rounded&quot;:0};" vertex="1" parent="pZKHLVV2I5eYefhVrAUv-24">
          <mxGeometry x="45" y="680" width="10" height="100" as="geometry" />
        </mxCell>
        <mxCell id="pZKHLVV2I5eYefhVrAUv-27" style="edgeStyle=orthogonalEdgeStyle;rounded=0;orthogonalLoop=1;jettySize=auto;html=1;curved=0;" parent="1" source="pZKHLVV2I5eYefhVrAUv-14" edge="1">
          <mxGeometry relative="1" as="geometry">
            <mxPoint x="714.5" y="130" as="targetPoint" />
            <Array as="points">
              <mxPoint x="575" y="130" />
              <mxPoint x="575" y="130" />
            </Array>
          </mxGeometry>
        </mxCell>
        <mxCell id="pZKHLVV2I5eYefhVrAUv-28" value="Validation(user_id, Password)" style="edgeLabel;html=1;align=center;verticalAlign=middle;resizable=0;points=[];" parent="pZKHLVV2I5eYefhVrAUv-27" vertex="1" connectable="0">
          <mxGeometry x="0.1159" relative="1" as="geometry">
            <mxPoint x="-7" y="-10" as="offset" />
          </mxGeometry>
        </mxCell>
        <mxCell id="pZKHLVV2I5eYefhVrAUv-12" style="edgeStyle=orthogonalEdgeStyle;rounded=0;orthogonalLoop=1;jettySize=auto;html=1;curved=0;" parent="1" edge="1">
          <mxGeometry relative="1" as="geometry">
            <mxPoint x="504.5" y="130" as="targetPoint" />
            <mxPoint x="120" y="130" as="sourcePoint" />
            <Array as="points">
              <mxPoint x="395" y="130" />
              <mxPoint x="395" y="130" />
            </Array>
          </mxGeometry>
        </mxCell>
        <mxCell id="pZKHLVV2I5eYefhVrAUv-13" value="Login(user_id, Password)" style="edgeLabel;html=1;align=center;verticalAlign=middle;resizable=0;points=[];" parent="pZKHLVV2I5eYefhVrAUv-12" vertex="1" connectable="0">
          <mxGeometry x="-0.0522" y="-1" relative="1" as="geometry">
            <mxPoint x="10" y="-11" as="offset" />
          </mxGeometry>
        </mxCell>
        <mxCell id="pZKHLVV2I5eYefhVrAUv-29" value="Student Home page access" style="html=1;verticalAlign=bottom;endArrow=open;dashed=1;endSize=8;curved=0;rounded=0;" parent="1" edge="1">
          <mxGeometry x="-0.0625" relative="1" as="geometry">
            <mxPoint x="495" y="180" as="sourcePoint" />
            <mxPoint x="335" y="180" as="targetPoint" />
            <mxPoint as="offset" />
          </mxGeometry>
        </mxCell>
        <mxCell id="pZKHLVV2I5eYefhVrAUv-34" value="Enrolment Page" style="html=1;verticalAlign=bottom;endArrow=block;curved=0;rounded=0;entryX=0;entryY=0;entryDx=0;entryDy=5;" parent="1" target="pZKHLVV2I5eYefhVrAUv-33" edge="1">
          <mxGeometry relative="1" as="geometry">
            <mxPoint x="329.5" y="295" as="sourcePoint" />
          </mxGeometry>
        </mxCell>
        <mxCell id="pZKHLVV2I5eYefhVrAUv-39" value="Staff Home page access" style="html=1;verticalAlign=bottom;endArrow=open;dashed=1;endSize=8;curved=0;rounded=0;exitX=0.5;exitY=0.75;exitDx=0;exitDy=0;exitPerimeter=0;" parent="1" edge="1">
          <mxGeometry x="0.0256" relative="1" as="geometry">
            <mxPoint x="500" y="230" as="sourcePoint" />
            <mxPoint x="335" y="230" as="targetPoint" />
            <mxPoint as="offset" />
          </mxGeometry>
        </mxCell>
        <mxCell id="pZKHLVV2I5eYefhVrAUv-40" value="Login Approval" style="html=1;verticalAlign=bottom;endArrow=open;dashed=1;endSize=8;curved=0;rounded=0;" parent="1" source="pZKHLVV2I5eYefhVrAUv-24" target="pZKHLVV2I5eYefhVrAUv-14" edge="1">
          <mxGeometry relative="1" as="geometry">
            <mxPoint x="620" y="170" as="sourcePoint" />
            <mxPoint x="540" y="170" as="targetPoint" />
            <Array as="points">
              <mxPoint x="580" y="170" />
            </Array>
          </mxGeometry>
        </mxCell>
        <mxCell id="pZKHLVV2I5eYefhVrAUv-41" style="edgeStyle=orthogonalEdgeStyle;rounded=0;orthogonalLoop=1;jettySize=auto;html=1;curved=0;exitX=1;exitY=0;exitDx=0;exitDy=5;exitPerimeter=0;" parent="1" source="pZKHLVV2I5eYefhVrAUv-33" edge="1">
          <mxGeometry relative="1" as="geometry">
            <mxPoint x="709.5" y="295" as="targetPoint" />
            <Array as="points">
              <mxPoint x="640" y="295" />
              <mxPoint x="640" y="295" />
            </Array>
          </mxGeometry>
        </mxCell>
        <mxCell id="pZKHLVV2I5eYefhVrAUv-42" value="IsEnrolled(Enrolled)" style="edgeLabel;html=1;align=center;verticalAlign=middle;resizable=0;points=[];" parent="pZKHLVV2I5eYefhVrAUv-41" vertex="1" connectable="0">
          <mxGeometry x="-0.0884" y="-1" relative="1" as="geometry">
            <mxPoint y="-6" as="offset" />
          </mxGeometry>
        </mxCell>
        <mxCell id="pZKHLVV2I5eYefhVrAUv-35" value="Enrolled" style="html=1;verticalAlign=bottom;endArrow=open;dashed=1;endSize=8;curved=0;rounded=0;" parent="1" edge="1">
          <mxGeometry relative="1" as="geometry">
            <mxPoint x="109.5" y="320" as="targetPoint" />
            <mxPoint x="499.5" y="320" as="sourcePoint" />
          </mxGeometry>
        </mxCell>
        <mxCell id="pZKHLVV2I5eYefhVrAUv-43" value="Home Page" style="shape=umlLifeline;perimeter=lifelinePerimeter;whiteSpace=wrap;html=1;container=1;dropTarget=0;collapsible=0;recursiveResize=0;outlineConnect=0;portConstraint=eastwest;newEdgeStyle={&quot;curved&quot;:0,&quot;rounded&quot;:0};" parent="1" vertex="1">
          <mxGeometry x="280" y="40" width="100" height="650" as="geometry" />
        </mxCell>
        <mxCell id="pZKHLVV2I5eYefhVrAUv-44" value="" style="html=1;points=[[0,0,0,0,5],[0,1,0,0,-5],[1,0,0,0,5],[1,1,0,0,-5]];perimeter=orthogonalPerimeter;outlineConnect=0;targetShapes=umlLifeline;portConstraint=eastwest;newEdgeStyle={&quot;curved&quot;:0,&quot;rounded&quot;:0};" parent="pZKHLVV2I5eYefhVrAUv-43" vertex="1">
          <mxGeometry x="45" y="130" width="10" height="80" as="geometry" />
        </mxCell>
        <mxCell id="pZKHLVV2I5eYefhVrAUv-45" value="" style="html=1;points=[[0,0,0,0,5],[0,1,0,0,-5],[1,0,0,0,5],[1,1,0,0,-5]];perimeter=orthogonalPerimeter;outlineConnect=0;targetShapes=umlLifeline;portConstraint=eastwest;newEdgeStyle={&quot;curved&quot;:0,&quot;rounded&quot;:0};" parent="pZKHLVV2I5eYefhVrAUv-43" vertex="1">
          <mxGeometry x="45" y="230" width="10" height="40" as="geometry" />
        </mxCell>
        <mxCell id="pZKHLVV2I5eYefhVrAUv-51" value="" style="html=1;points=[[0,0,0,0,5],[0,1,0,0,-5],[1,0,0,0,5],[1,1,0,0,-5]];perimeter=orthogonalPerimeter;outlineConnect=0;targetShapes=umlLifeline;portConstraint=eastwest;newEdgeStyle={&quot;curved&quot;:0,&quot;rounded&quot;:0};" parent="pZKHLVV2I5eYefhVrAUv-43" vertex="1">
          <mxGeometry x="45" y="325" width="10" height="55" as="geometry" />
        </mxCell>
        <mxCell id="qJ39X5yKAE_ROgauwuPq-4" value="" style="html=1;points=[[0,0,0,0,5],[0,1,0,0,-5],[1,0,0,0,5],[1,1,0,0,-5]];perimeter=orthogonalPerimeter;outlineConnect=0;targetShapes=umlLifeline;portConstraint=eastwest;newEdgeStyle={&quot;curved&quot;:0,&quot;rounded&quot;:0};" vertex="1" parent="pZKHLVV2I5eYefhVrAUv-43">
          <mxGeometry x="45" y="410" width="10" height="50" as="geometry" />
        </mxCell>
        <mxCell id="pZKHLVV2I5eYefhVrAUv-47" value="Module Selection Page" style="html=1;verticalAlign=bottom;endArrow=block;curved=0;rounded=0;" parent="1" target="pZKHLVV2I5eYefhVrAUv-46" edge="1">
          <mxGeometry relative="1" as="geometry">
            <mxPoint x="330" y="385" as="sourcePoint" />
            <mxPoint x="490" y="385" as="targetPoint" />
          </mxGeometry>
        </mxCell>
        <mxCell id="pZKHLVV2I5eYefhVrAUv-48" style="edgeStyle=orthogonalEdgeStyle;rounded=0;orthogonalLoop=1;jettySize=auto;html=1;curved=0;exitX=1;exitY=0;exitDx=0;exitDy=5;exitPerimeter=0;" parent="1" source="pZKHLVV2I5eYefhVrAUv-46" edge="1">
          <mxGeometry relative="1" as="geometry">
            <mxPoint x="710" y="385" as="targetPoint" />
            <Array as="points">
              <mxPoint x="640.5" y="385" />
              <mxPoint x="640.5" y="385" />
            </Array>
          </mxGeometry>
        </mxCell>
        <mxCell id="pZKHLVV2I5eYefhVrAUv-49" value="AddStudentModules(ModuleID)" style="edgeLabel;html=1;align=center;verticalAlign=middle;resizable=0;points=[];" parent="pZKHLVV2I5eYefhVrAUv-48" vertex="1" connectable="0">
          <mxGeometry x="-0.0884" y="-1" relative="1" as="geometry">
            <mxPoint y="-6" as="offset" />
          </mxGeometry>
        </mxCell>
        <mxCell id="pZKHLVV2I5eYefhVrAUv-52" value="Enrolment" style="html=1;verticalAlign=bottom;startArrow=oval;startFill=1;endArrow=block;startSize=8;curved=0;rounded=0;" parent="1" target="pZKHLVV2I5eYefhVrAUv-43" edge="1">
          <mxGeometry width="60" relative="1" as="geometry">
            <mxPoint x="110" y="290" as="sourcePoint" />
            <mxPoint x="170" y="290" as="targetPoint" />
          </mxGeometry>
        </mxCell>
        <mxCell id="pZKHLVV2I5eYefhVrAUv-53" value="Module Selection" style="html=1;verticalAlign=bottom;startArrow=oval;startFill=1;endArrow=block;startSize=8;curved=0;rounded=0;" parent="1" edge="1">
          <mxGeometry x="0.2727" width="60" relative="1" as="geometry">
            <mxPoint x="110" y="380" as="sourcePoint" />
            <mxPoint x="330" y="380" as="targetPoint" />
            <mxPoint as="offset" />
          </mxGeometry>
        </mxCell>
        <mxCell id="qJ39X5yKAE_ROgauwuPq-3" value="Enter Marks" style="html=1;verticalAlign=bottom;startArrow=oval;startFill=1;endArrow=block;startSize=8;curved=0;rounded=0;" edge="1" parent="1" source="qJ39X5yKAE_ROgauwuPq-2" target="pZKHLVV2I5eYefhVrAUv-43">
          <mxGeometry width="60" relative="1" as="geometry">
            <mxPoint x="210" y="460" as="sourcePoint" />
            <mxPoint x="270" y="460" as="targetPoint" />
            <Array as="points">
              <mxPoint x="260" y="460" />
            </Array>
          </mxGeometry>
        </mxCell>
        <mxCell id="qJ39X5yKAE_ROgauwuPq-6" value="Enter marks page" style="html=1;verticalAlign=bottom;endArrow=block;curved=0;rounded=0;exitX=1;exitY=0;exitDx=0;exitDy=5;exitPerimeter=0;" edge="1" parent="1" source="qJ39X5yKAE_ROgauwuPq-4" target="pZKHLVV2I5eYefhVrAUv-22">
          <mxGeometry width="80" relative="1" as="geometry">
            <mxPoint x="360" y="460" as="sourcePoint" />
            <mxPoint x="440" y="460" as="targetPoint" />
          </mxGeometry>
        </mxCell>
        <mxCell id="qJ39X5yKAE_ROgauwuPq-7" value="EnterMarks(ModuleID, StudentID, Mark)" style="html=1;verticalAlign=bottom;endArrow=block;curved=0;rounded=0;exitX=1;exitY=0;exitDx=0;exitDy=5;exitPerimeter=0;" edge="1" parent="1" source="qJ39X5yKAE_ROgauwuPq-5" target="pZKHLVV2I5eYefhVrAUv-24">
          <mxGeometry width="80" relative="1" as="geometry">
            <mxPoint x="510" y="460" as="sourcePoint" />
            <mxPoint x="650" y="460" as="targetPoint" />
          </mxGeometry>
        </mxCell>
        <mxCell id="qJ39X5yKAE_ROgauwuPq-10" value="Student Receives marks" style="html=1;verticalAlign=bottom;endArrow=open;dashed=1;endSize=8;curved=0;rounded=0;entryX=1;entryY=1;entryDx=0;entryDy=-5;entryPerimeter=0;" edge="1" parent="1">
          <mxGeometry relative="1" as="geometry">
            <mxPoint x="705" y="490" as="sourcePoint" />
            <mxPoint x="115" y="490" as="targetPoint" />
          </mxGeometry>
        </mxCell>
        <mxCell id="qJ39X5yKAE_ROgauwuPq-14" value="" style="html=1;points=[[0,0,0,0,5],[0,1,0,0,-5],[1,0,0,0,5],[1,1,0,0,-5]];perimeter=orthogonalPerimeter;outlineConnect=0;targetShapes=umlLifeline;portConstraint=eastwest;newEdgeStyle={&quot;curved&quot;:0,&quot;rounded&quot;:0};" vertex="1" parent="1">
          <mxGeometry x="500" y="530" width="10" height="50" as="geometry" />
        </mxCell>
        <mxCell id="qJ39X5yKAE_ROgauwuPq-15" value="" style="html=1;points=[[0,0,0,0,5],[0,1,0,0,-5],[1,0,0,0,5],[1,1,0,0,-5]];perimeter=orthogonalPerimeter;outlineConnect=0;targetShapes=umlLifeline;portConstraint=eastwest;newEdgeStyle={&quot;curved&quot;:0,&quot;rounded&quot;:0};" vertex="1" parent="1">
          <mxGeometry x="330" y="530" width="10" height="50" as="geometry" />
        </mxCell>
        <mxCell id="qJ39X5yKAE_ROgauwuPq-16" value="View Student Results" style="html=1;verticalAlign=bottom;startArrow=oval;startFill=1;endArrow=block;startSize=8;curved=0;rounded=0;" edge="1" parent="1" source="qJ39X5yKAE_ROgauwuPq-13">
          <mxGeometry width="60" relative="1" as="geometry">
            <mxPoint x="215" y="540" as="sourcePoint" />
            <mxPoint x="335" y="540" as="targetPoint" />
            <Array as="points">
              <mxPoint x="265" y="540" />
            </Array>
          </mxGeometry>
        </mxCell>
        <mxCell id="qJ39X5yKAE_ROgauwuPq-17" value="Student Results page" style="html=1;verticalAlign=bottom;endArrow=block;curved=0;rounded=0;exitX=1;exitY=0;exitDx=0;exitDy=5;exitPerimeter=0;" edge="1" parent="1" source="qJ39X5yKAE_ROgauwuPq-15">
          <mxGeometry width="80" relative="1" as="geometry">
            <mxPoint x="365" y="540" as="sourcePoint" />
            <mxPoint x="505" y="535" as="targetPoint" />
          </mxGeometry>
        </mxCell>
        <mxCell id="qJ39X5yKAE_ROgauwuPq-18" value="GetStudentResults(StudentID)" style="html=1;verticalAlign=bottom;endArrow=block;curved=0;rounded=0;exitX=1;exitY=0;exitDx=0;exitDy=5;exitPerimeter=0;" edge="1" parent="1" source="qJ39X5yKAE_ROgauwuPq-14">
          <mxGeometry width="80" relative="1" as="geometry">
            <mxPoint x="515" y="540" as="sourcePoint" />
            <mxPoint x="715" y="535" as="targetPoint" />
          </mxGeometry>
        </mxCell>
        <mxCell id="qJ39X5yKAE_ROgauwuPq-20" value="Students result" style="html=1;verticalAlign=bottom;endArrow=open;dashed=1;endSize=8;curved=0;rounded=0;exitX=0.5;exitY=0.458;exitDx=0;exitDy=0;exitPerimeter=0;" edge="1" parent="1" source="qJ39X5yKAE_ROgauwuPq-8" target="pZKHLVV2I5eYefhVrAUv-20">
          <mxGeometry relative="1" as="geometry">
            <mxPoint x="700" y="560" as="sourcePoint" />
            <mxPoint x="620" y="560" as="targetPoint" />
          </mxGeometry>
        </mxCell>
        <mxCell id="qJ39X5yKAE_ROgauwuPq-22" value="" style="html=1;points=[[0,0,0,0,5],[0,1,0,0,-5],[1,0,0,0,5],[1,1,0,0,-5]];perimeter=orthogonalPerimeter;outlineConnect=0;targetShapes=umlLifeline;portConstraint=eastwest;newEdgeStyle={&quot;curved&quot;:0,&quot;rounded&quot;:0};" vertex="1" parent="1">
          <mxGeometry x="495" y="610" width="10" height="50" as="geometry" />
        </mxCell>
        <mxCell id="qJ39X5yKAE_ROgauwuPq-23" value="" style="html=1;points=[[0,0,0,0,5],[0,1,0,0,-5],[1,0,0,0,5],[1,1,0,0,-5]];perimeter=orthogonalPerimeter;outlineConnect=0;targetShapes=umlLifeline;portConstraint=eastwest;newEdgeStyle={&quot;curved&quot;:0,&quot;rounded&quot;:0};" vertex="1" parent="1">
          <mxGeometry x="325" y="610" width="10" height="50" as="geometry" />
        </mxCell>
        <mxCell id="qJ39X5yKAE_ROgauwuPq-24" value="View Course Results" style="html=1;verticalAlign=bottom;startArrow=oval;startFill=1;endArrow=block;startSize=8;curved=0;rounded=0;" edge="1" parent="1" source="qJ39X5yKAE_ROgauwuPq-21">
          <mxGeometry width="60" relative="1" as="geometry">
            <mxPoint x="210" y="620" as="sourcePoint" />
            <mxPoint x="330" y="620" as="targetPoint" />
            <Array as="points">
              <mxPoint x="260" y="620" />
            </Array>
          </mxGeometry>
        </mxCell>
        <mxCell id="qJ39X5yKAE_ROgauwuPq-25" value="Course Results Page" style="html=1;verticalAlign=bottom;endArrow=block;curved=0;rounded=0;exitX=1;exitY=0;exitDx=0;exitDy=5;exitPerimeter=0;" edge="1" parent="1" source="qJ39X5yKAE_ROgauwuPq-23">
          <mxGeometry width="80" relative="1" as="geometry">
            <mxPoint x="360" y="620" as="sourcePoint" />
            <mxPoint x="500" y="615" as="targetPoint" />
          </mxGeometry>
        </mxCell>
        <mxCell id="qJ39X5yKAE_ROgauwuPq-26" value="GetCourseResults(Year)" style="html=1;verticalAlign=bottom;endArrow=block;curved=0;rounded=0;exitX=1;exitY=0;exitDx=0;exitDy=5;exitPerimeter=0;" edge="1" parent="1" source="qJ39X5yKAE_ROgauwuPq-22">
          <mxGeometry width="80" relative="1" as="geometry">
            <mxPoint x="510" y="620" as="sourcePoint" />
            <mxPoint x="710" y="615" as="targetPoint" />
          </mxGeometry>
        </mxCell>
        <mxCell id="qJ39X5yKAE_ROgauwuPq-27" value="Course Results" style="html=1;verticalAlign=bottom;endArrow=open;dashed=1;endSize=8;curved=0;rounded=0;exitX=0.5;exitY=0.458;exitDx=0;exitDy=0;exitPerimeter=0;" edge="1" parent="1" source="qJ39X5yKAE_ROgauwuPq-21">
          <mxGeometry x="-1" y="230" relative="1" as="geometry">
            <mxPoint x="705" y="640" as="sourcePoint" />
            <mxPoint x="175" y="640" as="targetPoint" />
            <mxPoint x="42" y="-125" as="offset" />
          </mxGeometry>
        </mxCell>
        <mxCell id="qJ39X5yKAE_ROgauwuPq-28" value="" style="html=1;verticalAlign=bottom;endArrow=open;dashed=1;endSize=8;curved=0;rounded=0;exitX=0.5;exitY=0.458;exitDx=0;exitDy=0;exitPerimeter=0;" edge="1" parent="1" target="qJ39X5yKAE_ROgauwuPq-21">
          <mxGeometry relative="1" as="geometry">
            <mxPoint x="705" y="640" as="sourcePoint" />
            <mxPoint x="175" y="640" as="targetPoint" />
          </mxGeometry>
        </mxCell>
        <mxCell id="qJ39X5yKAE_ROgauwuPq-21" value="" style="html=1;points=[[0,0,0,0,5],[0,1,0,0,-5],[1,0,0,0,5],[1,1,0,0,-5]];perimeter=orthogonalPerimeter;outlineConnect=0;targetShapes=umlLifeline;portConstraint=eastwest;newEdgeStyle={&quot;curved&quot;:0,&quot;rounded&quot;:0};" vertex="1" parent="1">
          <mxGeometry x="175" y="610" width="10" height="50" as="geometry" />
        </mxCell>
        <mxCell id="qJ39X5yKAE_ROgauwuPq-33" value="Create User Account" style="html=1;verticalAlign=bottom;startArrow=oval;startFill=1;endArrow=block;startSize=8;curved=0;rounded=0;" edge="1" parent="1" target="qJ39X5yKAE_ROgauwuPq-32">
          <mxGeometry width="60" relative="1" as="geometry">
            <mxPoint x="50" y="730" as="sourcePoint" />
            <mxPoint x="190" y="760" as="targetPoint" />
            <Array as="points">
              <mxPoint x="220" y="730" />
            </Array>
          </mxGeometry>
        </mxCell>
        <mxCell id="qJ39X5yKAE_ROgauwuPq-34" value="AddNewAccount(userID, Name)" style="html=1;verticalAlign=bottom;startArrow=oval;startFill=1;endArrow=block;startSize=8;curved=0;rounded=0;" edge="1" parent="1" target="qJ39X5yKAE_ROgauwuPq-29">
          <mxGeometry width="60" relative="1" as="geometry">
            <mxPoint x="510" y="730" as="sourcePoint" />
            <mxPoint x="570" y="740" as="targetPoint" />
            <Array as="points">
              <mxPoint x="570" y="730" />
            </Array>
          </mxGeometry>
        </mxCell>
        <mxCell id="qJ39X5yKAE_ROgauwuPq-35" value="Delete User Account" style="html=1;verticalAlign=bottom;startArrow=oval;startFill=1;endArrow=block;startSize=8;curved=0;rounded=0;" edge="1" parent="1" target="qJ39X5yKAE_ROgauwuPq-32">
          <mxGeometry width="60" relative="1" as="geometry">
            <mxPoint x="50" y="780" as="sourcePoint" />
            <mxPoint x="490" y="780" as="targetPoint" />
            <Array as="points">
              <mxPoint x="280" y="780" />
            </Array>
          </mxGeometry>
        </mxCell>
        <mxCell id="qJ39X5yKAE_ROgauwuPq-36" value="DeleteAccount(userID)" style="html=1;verticalAlign=bottom;startArrow=oval;startFill=1;endArrow=block;startSize=8;curved=0;rounded=0;" edge="1" parent="1">
          <mxGeometry width="60" relative="1" as="geometry">
            <mxPoint x="510" y="780" as="sourcePoint" />
            <mxPoint x="715" y="780" as="targetPoint" />
          </mxGeometry>
        </mxCell>
      </root>
    </mxGraphModel>
  </diagram>
</mxfile>
